<?xml version="1.0" encoding="UTF-8" standalone="no"?>
<!DOCTYPE svg PUBLIC "-//W3C//DTD SVG 1.1//EN"
 "http://www.w3.org/Graphics/SVG/1.1/DTD/svg11.dtd">
<!-- Generated by graphviz version 2.40.1 (20161225.0304)
 -->
<!-- Title: G Pages: 1 -->
<svg width="725pt" height="3070pt"
 viewBox="0.00 0.00 724.67 3070.00" xmlns="http://www.w3.org/2000/svg" xmlns:xlink="http://www.w3.org/1999/xlink">
<g id="graph0" class="graph" transform="scale(1 1) rotate(0) translate(4 3066)">
<title>G</title>
<polygon fill="#ffffff" stroke="transparent" points="-4,4 -4,-3066 720.6667,-3066 720.6667,4 -4,4"/>
<g id="clust1" class="cluster">
<title>cluster_Global</title>
<path fill="none" stroke="#c0c0c0" d="M151.8904,-352C151.8904,-352 696.6667,-352 696.6667,-352 702.6667,-352 708.6667,-358 708.6667,-364 708.6667,-364 708.6667,-3042 708.6667,-3042 708.6667,-3048 702.6667,-3054 696.6667,-3054 696.6667,-3054 151.8904,-3054 151.8904,-3054 145.8904,-3054 139.8904,-3048 139.8904,-3042 139.8904,-3042 139.8904,-364 139.8904,-364 139.8904,-358 145.8904,-352 151.8904,-352"/>
<text text-anchor="middle" x="424.2785" y="-3041.2" font-family="Times,serif" font-size="11.00" fill="#c0c0c0">Global</text>
</g>
<g id="clust2" class="cluster">
<title>cluster_\App</title>
<path fill="none" stroke="#c0c0c0" d="M224.6794,-494C224.6794,-494 688.6667,-494 688.6667,-494 694.6667,-494 700.6667,-500 700.6667,-506 700.6667,-506 700.6667,-2566 700.6667,-2566 700.6667,-2572 694.6667,-2578 688.6667,-2578 688.6667,-2578 224.6794,-2578 224.6794,-2578 218.6794,-2578 212.6794,-2572 212.6794,-2566 212.6794,-2566 212.6794,-506 212.6794,-506 212.6794,-500 218.6794,-494 224.6794,-494"/>
<text text-anchor="middle" x="456.673" y="-2565.2" font-family="Times,serif" font-size="11.00" fill="#c0c0c0">App</text>
</g>
<g id="clust3" class="cluster">
<title>cluster_\App\Controller</title>
<path fill="none" stroke="#c0c0c0" d="M523.6667,-1338C523.6667,-1338 680.6667,-1338 680.6667,-1338 686.6667,-1338 692.6667,-1344 692.6667,-1350 692.6667,-1350 692.6667,-1722 692.6667,-1722 692.6667,-1728 686.6667,-1734 680.6667,-1734 680.6667,-1734 523.6667,-1734 523.6667,-1734 517.6667,-1734 511.6667,-1728 511.6667,-1722 511.6667,-1722 511.6667,-1350 511.6667,-1350 511.6667,-1344 517.6667,-1338 523.6667,-1338"/>
<text text-anchor="middle" x="602.1667" y="-1721.2" font-family="Times,serif" font-size="11.00" fill="#c0c0c0">Controller</text>
</g>
<g id="clust4" class="cluster">
<title>cluster_\App\DataFixtures</title>
<path fill="none" stroke="#c0c0c0" d="M232.6794,-1742C232.6794,-1742 660.6667,-1742 660.6667,-1742 666.6667,-1742 672.6667,-1748 672.6667,-1754 672.6667,-1754 672.6667,-2072 672.6667,-2072 672.6667,-2078 666.6667,-2084 660.6667,-2084 660.6667,-2084 232.6794,-2084 232.6794,-2084 226.6794,-2084 220.6794,-2078 220.6794,-2072 220.6794,-2072 220.6794,-1754 220.6794,-1754 220.6794,-1748 226.6794,-1742 232.6794,-1742"/>
<text text-anchor="middle" x="446.673" y="-2071.2" font-family="Times,serif" font-size="11.00" fill="#c0c0c0">DataFixtures</text>
</g>
<g id="clust5" class="cluster">
<title>cluster_\App\Form</title>
<path fill="none" stroke="#c0c0c0" d="M525.6667,-798C525.6667,-798 678.6667,-798 678.6667,-798 684.6667,-798 690.6667,-804 690.6667,-810 690.6667,-810 690.6667,-1318 690.6667,-1318 690.6667,-1324 684.6667,-1330 678.6667,-1330 678.6667,-1330 525.6667,-1330 525.6667,-1330 519.6667,-1330 513.6667,-1324 513.6667,-1318 513.6667,-1318 513.6667,-810 513.6667,-810 513.6667,-804 519.6667,-798 525.6667,-798"/>
<text text-anchor="middle" x="602.1667" y="-1317.2" font-family="Times,serif" font-size="11.00" fill="#c0c0c0">Form</text>
</g>
<g id="clust6" class="cluster">
<title>cluster_\App\Form\DataTransformer</title>
<path fill="none" stroke="#c0c0c0" d="M533.6667,-1230C533.6667,-1230 670.6667,-1230 670.6667,-1230 676.6667,-1230 682.6667,-1236 682.6667,-1242 682.6667,-1242 682.6667,-1290 682.6667,-1290 682.6667,-1296 676.6667,-1302 670.6667,-1302 670.6667,-1302 533.6667,-1302 533.6667,-1302 527.6667,-1302 521.6667,-1296 521.6667,-1290 521.6667,-1290 521.6667,-1242 521.6667,-1242 521.6667,-1236 527.6667,-1230 533.6667,-1230"/>
<text text-anchor="middle" x="602.1667" y="-1289.2" font-family="Times,serif" font-size="11.00" fill="#c0c0c0">DataTransformer</text>
</g>
<g id="clust7" class="cluster">
<title>cluster_\App\Repository</title>
<path fill="none" stroke="#c0c0c0" d="M537.1667,-2092C537.1667,-2092 667.1667,-2092 667.1667,-2092 673.1667,-2092 679.1667,-2098 679.1667,-2104 679.1667,-2104 679.1667,-2368 679.1667,-2368 679.1667,-2374 673.1667,-2380 667.1667,-2380 667.1667,-2380 537.1667,-2380 537.1667,-2380 531.1667,-2380 525.1667,-2374 525.1667,-2368 525.1667,-2368 525.1667,-2104 525.1667,-2104 525.1667,-2098 531.1667,-2092 537.1667,-2092"/>
<text text-anchor="middle" x="602.1667" y="-2367.2" font-family="Times,serif" font-size="11.00" fill="#c0c0c0">Repository</text>
</g>
<g id="clust8" class="cluster">
<title>cluster_\App\Security</title>
<path fill="none" stroke="#c0c0c0" d="M559.6667,-2388C559.6667,-2388 644.6667,-2388 644.6667,-2388 650.6667,-2388 656.6667,-2394 656.6667,-2400 656.6667,-2400 656.6667,-2538 656.6667,-2538 656.6667,-2544 650.6667,-2550 644.6667,-2550 644.6667,-2550 559.6667,-2550 559.6667,-2550 553.6667,-2550 547.6667,-2544 547.6667,-2538 547.6667,-2538 547.6667,-2400 547.6667,-2400 547.6667,-2394 553.6667,-2388 559.6667,-2388"/>
<text text-anchor="middle" x="602.1667" y="-2537.2" font-family="Times,serif" font-size="11.00" fill="#c0c0c0">Security</text>
</g>
<g id="clust9" class="cluster">
<title>cluster_\App\Security\Voter</title>
<path fill="none" stroke="#c0c0c0" d="M567.6667,-2396C567.6667,-2396 636.6667,-2396 636.6667,-2396 642.6667,-2396 648.6667,-2402 648.6667,-2408 648.6667,-2408 648.6667,-2510 648.6667,-2510 648.6667,-2516 642.6667,-2522 636.6667,-2522 636.6667,-2522 567.6667,-2522 567.6667,-2522 561.6667,-2522 555.6667,-2516 555.6667,-2510 555.6667,-2510 555.6667,-2408 555.6667,-2408 555.6667,-2402 561.6667,-2396 567.6667,-2396"/>
<text text-anchor="middle" x="602.1667" y="-2509.2" font-family="Times,serif" font-size="11.00" fill="#c0c0c0">Voter</text>
</g>
<g id="clust10" class="cluster">
<title>cluster_\App\Service</title>
<path fill="none" stroke="#c0c0c0" d="M547.1667,-502C547.1667,-502 657.1667,-502 657.1667,-502 663.1667,-502 669.1667,-508 669.1667,-514 669.1667,-514 669.1667,-778 669.1667,-778 669.1667,-784 663.1667,-790 657.1667,-790 657.1667,-790 547.1667,-790 547.1667,-790 541.1667,-790 535.1667,-784 535.1667,-778 535.1667,-778 535.1667,-514 535.1667,-514 535.1667,-508 541.1667,-502 547.1667,-502"/>
<text text-anchor="middle" x="602.1667" y="-777.2" font-family="Times,serif" font-size="11.00" fill="#c0c0c0">Service</text>
</g>
<g id="clust11" class="cluster">
<title>cluster_\DoctrineMigrations</title>
<path fill="none" stroke="#c0c0c0" d="M527.1667,-360C527.1667,-360 677.1667,-360 677.1667,-360 683.1667,-360 689.1667,-366 689.1667,-372 689.1667,-372 689.1667,-474 689.1667,-474 689.1667,-480 683.1667,-486 677.1667,-486 677.1667,-486 527.1667,-486 527.1667,-486 521.1667,-486 515.1667,-480 515.1667,-474 515.1667,-474 515.1667,-372 515.1667,-372 515.1667,-366 521.1667,-360 527.1667,-360"/>
<text text-anchor="middle" x="602.1667" y="-473.2" font-family="Times,serif" font-size="11.00" fill="#c0c0c0">DoctrineMigrations</text>
</g>
<g id="clust12" class="cluster">
<title>cluster_Global\Symfony</title>
<path fill="none" stroke="#c0c0c0" d="M232.9325,-2774C232.9325,-2774 376.4262,-2774 376.4262,-2774 382.4262,-2774 388.4262,-2780 388.4262,-2786 388.4262,-2786 388.4262,-3014 388.4262,-3014 388.4262,-3020 382.4262,-3026 376.4262,-3026 376.4262,-3026 232.9325,-3026 232.9325,-3026 226.9325,-3026 220.9325,-3020 220.9325,-3014 220.9325,-3014 220.9325,-2786 220.9325,-2786 220.9325,-2780 226.9325,-2774 232.9325,-2774"/>
<text text-anchor="middle" x="304.6794" y="-3013.2" font-family="Times,serif" font-size="11.00" fill="#c0c0c0">Symfony</text>
</g>
<g id="clust13" class="cluster">
<title>cluster_Global\Symfony\Component</title>
<path fill="none" stroke="#c0c0c0" d="M240.9325,-2782C240.9325,-2782 368.4262,-2782 368.4262,-2782 374.4262,-2782 380.4262,-2788 380.4262,-2794 380.4262,-2794 380.4262,-2986 380.4262,-2986 380.4262,-2992 374.4262,-2998 368.4262,-2998 368.4262,-2998 240.9325,-2998 240.9325,-2998 234.9325,-2998 228.9325,-2992 228.9325,-2986 228.9325,-2986 228.9325,-2794 228.9325,-2794 228.9325,-2788 234.9325,-2782 240.9325,-2782"/>
<text text-anchor="middle" x="304.6794" y="-2985.2" font-family="Times,serif" font-size="11.00" fill="#c0c0c0">Component</text>
</g>
<g id="clust14" class="cluster">
<title>cluster_Global\Symfony\Component\Security</title>
<path fill="none" stroke="#c0c0c0" d="M248.9325,-2790C248.9325,-2790 360.4262,-2790 360.4262,-2790 366.4262,-2790 372.4262,-2796 372.4262,-2802 372.4262,-2802 372.4262,-2958 372.4262,-2958 372.4262,-2964 366.4262,-2970 360.4262,-2970 360.4262,-2970 248.9325,-2970 248.9325,-2970 242.9325,-2970 236.9325,-2964 236.9325,-2958 236.9325,-2958 236.9325,-2802 236.9325,-2802 236.9325,-2796 242.9325,-2790 248.9325,-2790"/>
<text text-anchor="middle" x="304.6794" y="-2957.2" font-family="Times,serif" font-size="11.00" fill="#c0c0c0">Security</text>
</g>
<g id="clust15" class="cluster">
<title>cluster_Global\Symfony\Component\Security\Core</title>
<path fill="none" stroke="#c0c0c0" d="M256.9325,-2798C256.9325,-2798 352.4262,-2798 352.4262,-2798 358.4262,-2798 364.4262,-2804 364.4262,-2810 364.4262,-2810 364.4262,-2930 364.4262,-2930 364.4262,-2936 358.4262,-2942 352.4262,-2942 352.4262,-2942 256.9325,-2942 256.9325,-2942 250.9325,-2942 244.9325,-2936 244.9325,-2930 244.9325,-2930 244.9325,-2810 244.9325,-2810 244.9325,-2804 250.9325,-2798 256.9325,-2798"/>
<text text-anchor="middle" x="304.6794" y="-2929.2" font-family="Times,serif" font-size="11.00" fill="#c0c0c0">Core</text>
</g>
<g id="clust16" class="cluster">
<title>cluster_Global\Symfony\Component\Security\Core\Authorization</title>
<path fill="none" stroke="#c0c0c0" d="M264.9325,-2806C264.9325,-2806 344.4262,-2806 344.4262,-2806 350.4262,-2806 356.4262,-2812 356.4262,-2818 356.4262,-2818 356.4262,-2902 356.4262,-2902 356.4262,-2908 350.4262,-2914 344.4262,-2914 344.4262,-2914 264.9325,-2914 264.9325,-2914 258.9325,-2914 252.9325,-2908 252.9325,-2902 252.9325,-2902 252.9325,-2818 252.9325,-2818 252.9325,-2812 258.9325,-2806 264.9325,-2806"/>
<text text-anchor="middle" x="304.6794" y="-2901.2" font-family="Times,serif" font-size="11.00" fill="#c0c0c0">Authorization</text>
</g>
<g id="clust17" class="cluster">
<title>cluster_Global\Symfony\Component\Security\Core\Authorization\Voter</title>
<path fill="none" stroke="#c0c0c0" d="M272.9325,-2814C272.9325,-2814 336.4262,-2814 336.4262,-2814 342.4262,-2814 348.4262,-2820 348.4262,-2826 348.4262,-2826 348.4262,-2874 348.4262,-2874 348.4262,-2880 342.4262,-2886 336.4262,-2886 336.4262,-2886 272.9325,-2886 272.9325,-2886 266.9325,-2886 260.9325,-2880 260.9325,-2874 260.9325,-2874 260.9325,-2826 260.9325,-2826 260.9325,-2820 266.9325,-2814 272.9325,-2814"/>
<text text-anchor="middle" x="304.6794" y="-2873.2" font-family="Times,serif" font-size="11.00" fill="#c0c0c0">Voter</text>
</g>
<g id="clust18" class="cluster">
<title>cluster_Global\Doctrine</title>
<path fill="none" stroke="#c0c0c0" d="M159.8904,-2586C159.8904,-2586 449.4683,-2586 449.4683,-2586 455.4683,-2586 461.4683,-2592 461.4683,-2598 461.4683,-2598 461.4683,-2754 461.4683,-2754 461.4683,-2760 455.4683,-2766 449.4683,-2766 449.4683,-2766 159.8904,-2766 159.8904,-2766 153.8904,-2766 147.8904,-2760 147.8904,-2754 147.8904,-2754 147.8904,-2598 147.8904,-2598 147.8904,-2592 153.8904,-2586 159.8904,-2586"/>
<text text-anchor="middle" x="304.6794" y="-2753.2" font-family="Times,serif" font-size="11.00" fill="#c0c0c0">Doctrine</text>
</g>
<g id="clust19" class="cluster">
<title>cluster_Global\Doctrine\Bundle</title>
<path fill="none" stroke="#c0c0c0" d="M167.8904,-2594C167.8904,-2594 441.4683,-2594 441.4683,-2594 447.4683,-2594 453.4683,-2600 453.4683,-2606 453.4683,-2606 453.4683,-2726 453.4683,-2726 453.4683,-2732 447.4683,-2738 441.4683,-2738 441.4683,-2738 167.8904,-2738 167.8904,-2738 161.8904,-2738 155.8904,-2732 155.8904,-2726 155.8904,-2726 155.8904,-2606 155.8904,-2606 155.8904,-2600 161.8904,-2594 167.8904,-2594"/>
<text text-anchor="middle" x="304.6794" y="-2725.2" font-family="Times,serif" font-size="11.00" fill="#c0c0c0">Bundle</text>
</g>
<g id="clust20" class="cluster">
<title>cluster_Global\Doctrine\Bundle\DoctrineBundle</title>
<path fill="none" stroke="#c0c0c0" d="M175.8904,-2602C175.8904,-2602 433.4683,-2602 433.4683,-2602 439.4683,-2602 445.4683,-2608 445.4683,-2614 445.4683,-2614 445.4683,-2698 445.4683,-2698 445.4683,-2704 439.4683,-2710 433.4683,-2710 433.4683,-2710 175.8904,-2710 175.8904,-2710 169.8904,-2710 163.8904,-2704 163.8904,-2698 163.8904,-2698 163.8904,-2614 163.8904,-2614 163.8904,-2608 169.8904,-2602 175.8904,-2602"/>
<text text-anchor="middle" x="304.6794" y="-2697.2" font-family="Times,serif" font-size="11.00" fill="#c0c0c0">DoctrineBundle</text>
</g>
<g id="clust21" class="cluster">
<title>cluster_Global\Doctrine\Bundle\DoctrineBundle\Repository</title>
<path fill="none" stroke="#c0c0c0" d="M183.8904,-2610C183.8904,-2610 425.4683,-2610 425.4683,-2610 431.4683,-2610 437.4683,-2616 437.4683,-2622 437.4683,-2622 437.4683,-2670 437.4683,-2670 437.4683,-2676 431.4683,-2682 425.4683,-2682 425.4683,-2682 183.8904,-2682 183.8904,-2682 177.8904,-2682 171.8904,-2676 171.8904,-2670 171.8904,-2670 171.8904,-2622 171.8904,-2622 171.8904,-2616 177.8904,-2610 183.8904,-2610"/>
<text text-anchor="middle" x="304.6794" y="-2669.2" font-family="Times,serif" font-size="11.00" fill="#c0c0c0">Repository</text>
</g>
<!-- \\App\\Controller\\CategoryController -->
<g id="node1" class="node">
<title>\\App\\Controller\\CategoryController</title>
<polygon fill="none" stroke="#000000" points="671.1667,-1544 533.1667,-1544 533.1667,-1508 671.1667,-1508 671.1667,-1544"/>
<text text-anchor="middle" x="602.1667" y="-1523.2" font-family="Courier,monospace" font-size="11.00" fill="#000000">CategoryController</text>
</g>
<!-- AbstractController -->
<g id="node40" class="node">
<title>AbstractController</title>
<ellipse fill="none" stroke="#000000" cx="304.6794" cy="-180" rx="98.5829" ry="18"/>
<text text-anchor="middle" x="304.6794" y="-176.3" font-family="Times,serif" font-size="14.00" fill="#000000">AbstractController</text>
</g>
<!-- \\App\\Controller\\CategoryController&#45;&gt;AbstractController -->
<g id="edge1" class="edge">
<title>\\App\\Controller\\CategoryController&#45;&gt;AbstractController</title>
<path fill="none" stroke="#000000" d="M533.0707,-1515.5932C524.7925,-1511.6264 517.2956,-1506.254 511.6667,-1499 423.933,-1385.9384 554.1231,-321.0651 461.4683,-212 448.9849,-197.3057 431.7467,-188.2268 413.2491,-182.7987"/>
<polygon fill="none" stroke="#000000" points="414.0367,-179.3874 403.4798,-180.2825 412.2907,-186.1662 414.0367,-179.3874"/>
</g>
<!-- \\App\\Controller\\CommentController -->
<g id="node2" class="node">
<title>\\App\\Controller\\CommentController</title>
<polygon fill="none" stroke="#000000" points="667.6667,-1490 536.6667,-1490 536.6667,-1454 667.6667,-1454 667.6667,-1490"/>
<text text-anchor="middle" x="602.1667" y="-1469.2" font-family="Courier,monospace" font-size="11.00" fill="#000000">CommentController</text>
</g>
<!-- \\App\\Controller\\CommentController&#45;&gt;AbstractController -->
<g id="edge2" class="edge">
<title>\\App\\Controller\\CommentController&#45;&gt;AbstractController</title>
<path fill="none" stroke="#000000" d="M536.2214,-1463.0066C526.7064,-1458.9319 518.0062,-1453.1554 511.6667,-1445 427.5161,-1336.7466 550.3306,-316.4203 461.4683,-212 448.9724,-197.3164 431.7284,-188.2424 413.2291,-182.8157"/>
<polygon fill="none" stroke="#000000" points="414.0162,-179.4042 403.4593,-180.2999 412.2705,-186.1831 414.0162,-179.4042"/>
</g>
<!-- \\App\\Controller\\NoteController -->
<g id="node3" class="node">
<title>\\App\\Controller\\NoteController</title>
<polygon fill="none" stroke="#000000" points="657.6667,-1436 546.6667,-1436 546.6667,-1400 657.6667,-1400 657.6667,-1436"/>
<text text-anchor="middle" x="602.1667" y="-1415.2" font-family="Courier,monospace" font-size="11.00" fill="#000000">NoteController</text>
</g>
<!-- \\App\\Controller\\NoteController&#45;&gt;AbstractController -->
<g id="edge3" class="edge">
<title>\\App\\Controller\\NoteController&#45;&gt;AbstractController</title>
<path fill="none" stroke="#000000" d="M546.4355,-1412.6709C533.0843,-1408.6657 520.2303,-1401.9953 511.6667,-1391 431.099,-1287.5546 546.5383,-311.7758 461.4683,-212 449.0355,-197.418 431.92,-188.3708 413.5477,-182.9345"/>
<polygon fill="none" stroke="#000000" points="414.4028,-179.5405 403.8438,-180.4106 412.6408,-186.3151 414.4028,-179.5405"/>
</g>
<!-- \\App\\Controller\\RegistrationController -->
<g id="node4" class="node">
<title>\\App\\Controller\\RegistrationController</title>
<polygon fill="none" stroke="#000000" points="684.6667,-1382 519.6667,-1382 519.6667,-1346 684.6667,-1346 684.6667,-1382"/>
<text text-anchor="middle" x="602.1667" y="-1361.2" font-family="Courier,monospace" font-size="11.00" fill="#000000">RegistrationController</text>
</g>
<!-- \\App\\Controller\\RegistrationController&#45;&gt;AbstractController -->
<g id="edge4" class="edge">
<title>\\App\\Controller\\RegistrationController&#45;&gt;AbstractController</title>
<path fill="none" stroke="#000000" d="M556.4975,-1345.7621C539.4206,-1336.5071 521.7397,-1323.4568 511.6667,-1306 450.8507,-1200.6042 540.5694,-304.4655 461.4683,-212 449.0114,-197.4385 431.8848,-188.4008 413.5092,-182.9674"/>
<polygon fill="none" stroke="#000000" points="414.3631,-179.5731 403.8042,-180.4444 412.6019,-186.3479 414.3631,-179.5731"/>
</g>
<!-- \\App\\Controller\\SecurityController -->
<g id="node5" class="node">
<title>\\App\\Controller\\SecurityController</title>
<polygon fill="none" stroke="#000000" points="671.1667,-1706 533.1667,-1706 533.1667,-1670 671.1667,-1670 671.1667,-1706"/>
<text text-anchor="middle" x="602.1667" y="-1685.2" font-family="Courier,monospace" font-size="11.00" fill="#000000">SecurityController</text>
</g>
<!-- \\App\\Controller\\SecurityController&#45;&gt;AbstractController -->
<g id="edge5" class="edge">
<title>\\App\\Controller\\SecurityController&#45;&gt;AbstractController</title>
<path fill="none" stroke="#000000" d="M533.0418,-1677.6156C524.7678,-1673.6455 517.2798,-1668.2663 511.6667,-1661 413.1828,-1533.5126 565.5016,-335.0007 461.4683,-212 449.017,-197.2786 431.7933,-188.1873 413.3001,-182.7554"/>
<polygon fill="none" stroke="#000000" points="414.0893,-179.3445 403.5322,-180.238 412.3423,-186.123 414.0893,-179.3445"/>
</g>
<!-- \\App\\Controller\\TagController -->
<g id="node6" class="node">
<title>\\App\\Controller\\TagController</title>
<polygon fill="none" stroke="#000000" points="654.1667,-1652 550.1667,-1652 550.1667,-1616 654.1667,-1616 654.1667,-1652"/>
<text text-anchor="middle" x="602.1667" y="-1631.2" font-family="Courier,monospace" font-size="11.00" fill="#000000">TagController</text>
</g>
<!-- \\App\\Controller\\TagController&#45;&gt;AbstractController -->
<g id="edge6" class="edge">
<title>\\App\\Controller\\TagController&#45;&gt;AbstractController</title>
<path fill="none" stroke="#000000" d="M549.6937,-1629.6446C535.1802,-1625.774 520.8963,-1618.9312 511.6667,-1607 416.7664,-1484.3214 561.7086,-330.3553 461.4683,-212 449.0071,-197.2869 431.779,-188.1994 413.2844,-182.7687"/>
<polygon fill="none" stroke="#000000" points="414.0731,-179.3577 403.516,-180.2517 412.3264,-186.1363 414.0731,-179.3577"/>
</g>
<!-- \\App\\Controller\\TaskController -->
<g id="node7" class="node">
<title>\\App\\Controller\\TaskController</title>
<polygon fill="none" stroke="#000000" points="657.6667,-1598 546.6667,-1598 546.6667,-1562 657.6667,-1562 657.6667,-1598"/>
<text text-anchor="middle" x="602.1667" y="-1577.2" font-family="Courier,monospace" font-size="11.00" fill="#000000">TaskController</text>
</g>
<!-- \\App\\Controller\\TaskController&#45;&gt;AbstractController -->
<g id="edge7" class="edge">
<title>\\App\\Controller\\TaskController&#45;&gt;AbstractController</title>
<path fill="none" stroke="#000000" d="M546.3976,-1574.7003C533.0465,-1570.695 520.202,-1564.0173 511.6667,-1553 420.3498,-1435.13 557.9158,-325.7101 461.4683,-212 448.9965,-197.2959 431.7635,-188.2126 413.2674,-182.7831"/>
<polygon fill="none" stroke="#000000" points="414.0556,-179.3719 403.4986,-180.2665 412.3093,-186.1506 414.0556,-179.3719"/>
</g>
<!-- \\App\\DataFixtures\\AbstractBaseFixtures -->
<g id="node8" class="node">
<title>\\App\\DataFixtures\\AbstractBaseFixtures</title>
<polygon fill="none" stroke="#000000" points="380.6794,-1921 228.6794,-1921 228.6794,-1885 380.6794,-1885 380.6794,-1921"/>
<text text-anchor="start" x="270.6794" y="-1906.2" font-family="Courier,monospace" font-size="11.00" fill="#000000">«abstract»</text>
<text text-anchor="start" x="236.6794" y="-1894.2" font-family="Courier,monospace" font-size="11.00" fill="#000000">AbstractBaseFixtures</text>
</g>
<!-- Fixture -->
<g id="node41" class="node">
<title>Fixture</title>
<ellipse fill="none" stroke="#000000" cx="44.846" cy="-1051" rx="44.6926" ry="18"/>
<text text-anchor="middle" x="44.846" y="-1047.3" font-family="Times,serif" font-size="14.00" fill="#000000">Fixture</text>
</g>
<!-- \\App\\DataFixtures\\AbstractBaseFixtures&#45;&gt;Fixture -->
<g id="edge8" class="edge">
<title>\\App\\DataFixtures\\AbstractBaseFixtures&#45;&gt;Fixture</title>
<path fill="none" stroke="#000000" d="M299.1322,-1884.8106C265.9417,-1775.9783 93.7116,-1211.2316 53.3268,-1078.8088"/>
<polygon fill="none" stroke="#000000" points="56.6062,-1077.5632 50.3413,-1069.0191 49.9106,-1079.6052 56.6062,-1077.5632"/>
</g>
<!-- \\App\\DataFixtures\\AppFixtures -->
<g id="node9" class="node">
<title>\\App\\DataFixtures\\AppFixtures</title>
<polygon fill="none" stroke="#000000" points="647.6667,-1786 556.6667,-1786 556.6667,-1750 647.6667,-1750 647.6667,-1786"/>
<text text-anchor="middle" x="602.1667" y="-1765.2" font-family="Courier,monospace" font-size="11.00" fill="#000000">AppFixtures</text>
</g>
<!-- \\App\\DataFixtures\\AppFixtures&#45;&gt;Fixture -->
<g id="edge9" class="edge">
<title>\\App\\DataFixtures\\AppFixtures&#45;&gt;Fixture</title>
<path fill="none" stroke="#000000" d="M556.6612,-1763.7559C539.8248,-1759.7511 522.2744,-1752.1833 511.6667,-1738 412.2557,-1605.0802 580.7914,-360.3786 461.4683,-245 410.0952,-195.3252 193.2985,-197.5199 139.8904,-245 80.3605,-297.9225 51.8404,-886.2159 45.9948,-1022.7963"/>
<polygon fill="none" stroke="#000000" points="42.4942,-1022.7405 45.5696,-1032.8792 49.4879,-1023.0355 42.4942,-1022.7405"/>
</g>
<!-- \\App\\DataFixtures\\CategoryFixtures -->
<g id="node10" class="node">
<title>\\App\\DataFixtures\\CategoryFixtures</title>
<polygon fill="none" stroke="#000000" points="664.6667,-2056 539.6667,-2056 539.6667,-2020 664.6667,-2020 664.6667,-2056"/>
<text text-anchor="middle" x="602.1667" y="-2035.2" font-family="Courier,monospace" font-size="11.00" fill="#000000">CategoryFixtures</text>
</g>
<!-- \\App\\DataFixtures\\CategoryFixtures&#45;&gt;\\App\\DataFixtures\\AbstractBaseFixtures -->
<g id="edge10" class="edge">
<title>\\App\\DataFixtures\\CategoryFixtures&#45;&gt;\\App\\DataFixtures\\AbstractBaseFixtures</title>
<path fill="none" stroke="#000000" d="M539.3123,-2020.9459C529.9433,-2017.9163 520.4788,-2014.5752 511.6667,-2011 451.0833,-1986.4204 384.6703,-1949.9388 343.8258,-1926.3119"/>
<polygon fill="none" stroke="#000000" points="345.4144,-1923.1869 335.0109,-1921.1824 341.8937,-1929.2371 345.4144,-1923.1869"/>
</g>
<!-- \\App\\DataFixtures\\NoteFixtures -->
<g id="node11" class="node">
<title>\\App\\DataFixtures\\NoteFixtures</title>
<polygon fill="none" stroke="#000000" points="651.1667,-1894 553.1667,-1894 553.1667,-1858 651.1667,-1858 651.1667,-1894"/>
<text text-anchor="middle" x="602.1667" y="-1873.2" font-family="Courier,monospace" font-size="11.00" fill="#000000">NoteFixtures</text>
</g>
<!-- \\App\\DataFixtures\\NoteFixtures&#45;&gt;\\App\\DataFixtures\\AbstractBaseFixtures -->
<g id="edge11" class="edge">
<title>\\App\\DataFixtures\\NoteFixtures&#45;&gt;\\App\\DataFixtures\\AbstractBaseFixtures</title>
<path fill="none" stroke="#000000" d="M553.0427,-1880.4585C509.0122,-1884.4547 443.4279,-1890.4072 390.7098,-1895.1919"/>
<polygon fill="none" stroke="#000000" points="390.3291,-1891.7119 380.6864,-1896.1016 390.9618,-1898.6833 390.3291,-1891.7119"/>
</g>
<!-- DependentFixtureInterface -->
<g id="node42" class="node">
<title>DependentFixtureInterface</title>
<ellipse fill="none" stroke="#000000" cx="304.6794" cy="-272" rx="138.3755" ry="18"/>
<text text-anchor="middle" x="304.6794" y="-268.3" font-family="Times,serif" font-size="14.00" fill="#000000">DependentFixtureInterface</text>
</g>
<!-- \\App\\DataFixtures\\NoteFixtures&#45;&gt;DependentFixtureInterface -->
<g id="edge12" class="edge">
<title>\\App\\DataFixtures\\NoteFixtures&#45;&gt;DependentFixtureInterface</title>
<path fill="none" stroke="#000000" stroke-dasharray="1,5" d="M552.9824,-1872.4976C537.3548,-1868.8077 521.5755,-1861.8569 511.6667,-1849 406.48,-1712.5179 574.6109,-428.9629 461.4683,-299 456.0487,-292.7747 449.7579,-287.6348 442.8733,-283.4118"/>
<polygon fill="none" stroke="#000000" points="444.3178,-280.2141 433.856,-278.5404 440.9906,-286.3729 444.3178,-280.2141"/>
</g>
<!-- \\App\\DataFixtures\\TagFixtures -->
<g id="node12" class="node">
<title>\\App\\DataFixtures\\TagFixtures</title>
<polygon fill="none" stroke="#000000" points="647.6667,-1840 556.6667,-1840 556.6667,-1804 647.6667,-1804 647.6667,-1840"/>
<text text-anchor="middle" x="602.1667" y="-1819.2" font-family="Courier,monospace" font-size="11.00" fill="#000000">TagFixtures</text>
</g>
<!-- \\App\\DataFixtures\\TagFixtures&#45;&gt;\\App\\DataFixtures\\AbstractBaseFixtures -->
<g id="edge13" class="edge">
<title>\\App\\DataFixtures\\TagFixtures&#45;&gt;\\App\\DataFixtures\\AbstractBaseFixtures</title>
<path fill="none" stroke="#000000" d="M556.6609,-1834.3903C509.9065,-1847.1206 436.2989,-1867.1626 380.6864,-1882.3048"/>
<polygon fill="none" stroke="#000000" points="379.6027,-1878.9723 370.8735,-1884.9766 381.4418,-1885.7264 379.6027,-1878.9723"/>
</g>
<!-- \\App\\DataFixtures\\TagFixtures&#45;&gt;DependentFixtureInterface -->
<g id="edge14" class="edge">
<title>\\App\\DataFixtures\\TagFixtures&#45;&gt;DependentFixtureInterface</title>
<path fill="none" stroke="#000000" stroke-dasharray="1,5" d="M556.3012,-1819.2259C539.625,-1815.7538 522.2841,-1808.7598 511.6667,-1795 410.0637,-1663.327 570.7465,-424.3762 461.4683,-299 456.045,-292.7778 449.7515,-287.6404 442.8648,-283.4192"/>
<polygon fill="none" stroke="#000000" points="444.3074,-280.2206 433.8452,-278.5497 440.9819,-286.3803 444.3074,-280.2206"/>
</g>
<!-- \\App\\DataFixtures\\TaskFixtures -->
<g id="node13" class="node">
<title>\\App\\DataFixtures\\TaskFixtures</title>
<polygon fill="none" stroke="#000000" points="651.1667,-1948 553.1667,-1948 553.1667,-1912 651.1667,-1912 651.1667,-1948"/>
<text text-anchor="middle" x="602.1667" y="-1927.2" font-family="Courier,monospace" font-size="11.00" fill="#000000">TaskFixtures</text>
</g>
<!-- \\App\\DataFixtures\\TaskFixtures&#45;&gt;\\App\\DataFixtures\\AbstractBaseFixtures -->
<g id="edge15" class="edge">
<title>\\App\\DataFixtures\\TaskFixtures&#45;&gt;\\App\\DataFixtures\\AbstractBaseFixtures</title>
<path fill="none" stroke="#000000" d="M553.0427,-1925.5415C509.0122,-1921.5453 443.4279,-1915.5928 390.7098,-1910.8081"/>
<polygon fill="none" stroke="#000000" points="390.9618,-1907.3167 380.6864,-1909.8984 390.3291,-1914.2881 390.9618,-1907.3167"/>
</g>
<!-- \\App\\DataFixtures\\TaskFixtures&#45;&gt;DependentFixtureInterface -->
<g id="edge16" class="edge">
<title>\\App\\DataFixtures\\TaskFixtures&#45;&gt;DependentFixtureInterface</title>
<path fill="none" stroke="#000000" stroke-dasharray="1,5" d="M552.9745,-1926.5037C537.3462,-1922.8143 521.5685,-1915.8623 511.6667,-1903 402.8961,-1761.7087 578.4753,-433.5497 461.4683,-299 456.052,-292.7717 449.7639,-287.6296 442.8812,-283.4049"/>
<polygon fill="none" stroke="#000000" points="444.3274,-280.208 433.866,-278.5316 440.9986,-286.3659 444.3274,-280.208"/>
</g>
<!-- \\App\\DataFixtures\\UserFixtures -->
<g id="node14" class="node">
<title>\\App\\DataFixtures\\UserFixtures</title>
<polygon fill="none" stroke="#000000" points="651.1667,-2002 553.1667,-2002 553.1667,-1966 651.1667,-1966 651.1667,-2002"/>
<text text-anchor="middle" x="602.1667" y="-1981.2" font-family="Courier,monospace" font-size="11.00" fill="#000000">UserFixtures</text>
</g>
<!-- \\App\\DataFixtures\\UserFixtures&#45;&gt;\\App\\DataFixtures\\AbstractBaseFixtures -->
<g id="edge17" class="edge">
<title>\\App\\DataFixtures\\UserFixtures&#45;&gt;\\App\\DataFixtures\\AbstractBaseFixtures</title>
<path fill="none" stroke="#000000" d="M553.0427,-1970.6245C506.2019,-1957.8707 434.9681,-1938.4751 380.7814,-1923.7211"/>
<polygon fill="none" stroke="#000000" points="381.44,-1920.2731 370.8717,-1921.0229 379.6009,-1927.0272 381.44,-1920.2731"/>
</g>
<!-- \\App\\Form\\DataTransformer\\TagsDataTransformer -->
<g id="node15" class="node">
<title>\\App\\Form\\DataTransformer\\TagsDataTransformer</title>
<polygon fill="none" stroke="#000000" points="674.6667,-1274 529.6667,-1274 529.6667,-1238 674.6667,-1238 674.6667,-1274"/>
<text text-anchor="middle" x="602.1667" y="-1253.2" font-family="Courier,monospace" font-size="11.00" fill="#000000">TagsDataTransformer</text>
</g>
<!-- DataTransformerInterface -->
<g id="node44" class="node">
<title>DataTransformerInterface</title>
<ellipse fill="none" stroke="#000000" cx="304.6794" cy="-126" rx="133.7763" ry="18"/>
<text text-anchor="middle" x="304.6794" y="-122.3" font-family="Times,serif" font-size="14.00" fill="#000000">DataTransformerInterface</text>
</g>
<!-- \\App\\Form\\DataTransformer\\TagsDataTransformer&#45;&gt;DataTransformerInterface -->
<g id="edge21" class="edge">
<title>\\App\\Form\\DataTransformer\\TagsDataTransformer&#45;&gt;DataTransformerInterface</title>
<path fill="none" stroke="#000000" stroke-dasharray="1,5" d="M529.3632,-1247.6782C522.6097,-1244.3167 516.5004,-1239.8642 511.6667,-1234 435.1879,-1141.2164 541.0539,-243.1328 461.4683,-153 455.5552,-146.3033 448.6335,-140.8678 441.0525,-136.4816"/>
<polygon fill="none" stroke="#000000" points="442.37,-133.2248 431.8711,-131.802 439.1913,-139.4614 442.37,-133.2248"/>
</g>
<!-- \\App\\Form\\CategoryType -->
<g id="node16" class="node">
<title>\\App\\Form\\CategoryType</title>
<polygon fill="none" stroke="#000000" points="651.1667,-896 553.1667,-896 553.1667,-860 651.1667,-860 651.1667,-896"/>
<text text-anchor="middle" x="602.1667" y="-875.2" font-family="Courier,monospace" font-size="11.00" fill="#000000">CategoryType</text>
</g>
<!-- AbstractType -->
<g id="node43" class="node">
<title>AbstractType</title>
<ellipse fill="none" stroke="#000000" cx="304.6794" cy="-72" rx="74.187" ry="18"/>
<text text-anchor="middle" x="304.6794" y="-68.3" font-family="Times,serif" font-size="14.00" fill="#000000">AbstractType</text>
</g>
<!-- \\App\\Form\\CategoryType&#45;&gt;AbstractType -->
<g id="edge18" class="edge">
<title>\\App\\Form\\CategoryType&#45;&gt;AbstractType</title>
<path fill="none" stroke="#000000" d="M552.7564,-874.1905C537.3041,-870.4568 521.6921,-863.557 511.6667,-851 407.1695,-720.1149 573.5886,-223.417 461.4683,-99 442.3651,-77.8017 413.1454,-69.3158 385.0856,-66.7343"/>
<polygon fill="none" stroke="#000000" points="385.0353,-63.2229 374.8212,-66.0377 384.5612,-70.2068 385.0353,-63.2229"/>
</g>
<!-- \\App\\Form\\ChangePasswordType -->
<g id="node17" class="node">
<title>\\App\\Form\\ChangePasswordType</title>
<polygon fill="none" stroke="#000000" points="671.1667,-842 533.1667,-842 533.1667,-806 671.1667,-806 671.1667,-842"/>
<text text-anchor="middle" x="602.1667" y="-821.2" font-family="Courier,monospace" font-size="11.00" fill="#000000">ChangePasswordType</text>
</g>
<!-- \\App\\Form\\ChangePasswordType&#45;&gt;AbstractType -->
<g id="edge19" class="edge">
<title>\\App\\Form\\ChangePasswordType&#45;&gt;AbstractType</title>
<path fill="none" stroke="#000000" d="M532.7452,-810.8457C524.6249,-806.6661 517.2585,-801.1842 511.6667,-794 416.5559,-671.8056 565.4423,-213.7472 461.4683,-99 442.3074,-77.8538 413.0766,-69.378 385.0241,-66.7899"/>
<polygon fill="none" stroke="#000000" points="384.9781,-63.2787 374.7631,-66.0902 384.5018,-70.2625 384.9781,-63.2787"/>
</g>
<!-- \\App\\Form\\CommentType -->
<g id="node18" class="node">
<title>\\App\\Form\\CommentType</title>
<polygon fill="none" stroke="#000000" points="647.6667,-1220 556.6667,-1220 556.6667,-1184 647.6667,-1184 647.6667,-1220"/>
<text text-anchor="middle" x="602.1667" y="-1199.2" font-family="Courier,monospace" font-size="11.00" fill="#000000">CommentType</text>
</g>
<!-- \\App\\Form\\CommentType&#45;&gt;AbstractType -->
<g id="edge20" class="edge">
<title>\\App\\Form\\CommentType&#45;&gt;AbstractType</title>
<path fill="none" stroke="#000000" d="M556.3936,-1199.1541C539.7302,-1195.6721 522.3739,-1188.69 511.6667,-1175 437.9323,-1080.7244 540.6963,-188.7082 461.4683,-99 442.497,-77.5192 413.1481,-69.0156 384.9501,-66.4984"/>
<polygon fill="none" stroke="#000000" points="384.8406,-62.9841 374.6349,-65.829 384.3872,-69.9694 384.8406,-62.9841"/>
</g>
<!-- \\App\\Form\\NoteType -->
<g id="node19" class="node">
<title>\\App\\Form\\NoteType</title>
<polygon fill="none" stroke="#000000" points="637.6667,-1166 566.6667,-1166 566.6667,-1130 637.6667,-1130 637.6667,-1166"/>
<text text-anchor="middle" x="602.1667" y="-1145.2" font-family="Courier,monospace" font-size="11.00" fill="#000000">NoteType</text>
</g>
<!-- \\App\\Form\\NoteType&#45;&gt;AbstractType -->
<g id="edge22" class="edge">
<title>\\App\\Form\\NoteType&#45;&gt;AbstractType</title>
<path fill="none" stroke="#000000" d="M566.629,-1146.8866C547.2414,-1144.2655 524.6164,-1137.5155 511.6667,-1121 441.5144,-1031.5314 536.8337,-184.1236 461.4683,-99 442.4706,-77.5426 413.1167,-69.0434 384.9221,-66.5232"/>
<polygon fill="none" stroke="#000000" points="384.8146,-63.0089 374.6085,-65.8523 384.3601,-69.9941 384.8146,-63.0089"/>
</g>
<!-- \\App\\Form\\RegistrationFormType -->
<g id="node20" class="node">
<title>\\App\\Form\\RegistrationFormType</title>
<polygon fill="none" stroke="#000000" points="678.1667,-1112 526.1667,-1112 526.1667,-1076 678.1667,-1076 678.1667,-1112"/>
<text text-anchor="middle" x="602.1667" y="-1091.2" font-family="Courier,monospace" font-size="11.00" fill="#000000">RegistrationFormType</text>
</g>
<!-- \\App\\Form\\RegistrationFormType&#45;&gt;AbstractType -->
<g id="edge23" class="edge">
<title>\\App\\Form\\RegistrationFormType&#45;&gt;AbstractType</title>
<path fill="none" stroke="#000000" d="M525.8477,-1079.5243C520.4678,-1076.1484 515.6192,-1072.0267 511.6667,-1067 378.5257,-897.6757 604.4749,-260.0787 461.4683,-99 442.4413,-77.5686 413.0818,-69.0743 384.891,-66.5508"/>
<polygon fill="none" stroke="#000000" points="384.7857,-63.0366 374.5791,-65.8783 384.3302,-70.0217 384.7857,-63.0366"/>
</g>
<!-- \\App\\Form\\TagType -->
<g id="node21" class="node">
<title>\\App\\Form\\TagType</title>
<polygon fill="none" stroke="#000000" points="634.1667,-1058 570.1667,-1058 570.1667,-1022 634.1667,-1022 634.1667,-1058"/>
<text text-anchor="middle" x="602.1667" y="-1037.2" font-family="Courier,monospace" font-size="11.00" fill="#000000">TagType</text>
</g>
<!-- \\App\\Form\\TagType&#45;&gt;AbstractType -->
<g id="edge24" class="edge">
<title>\\App\\Form\\TagType&#45;&gt;AbstractType</title>
<path fill="none" stroke="#000000" d="M569.8123,-1039.254C549.7926,-1036.9371 525.375,-1030.3791 511.6667,-1013 385.6883,-853.2877 596.7515,-250.9112 461.4683,-99 442.4086,-77.5976 413.0429,-69.1089 384.8563,-66.5816"/>
<polygon fill="none" stroke="#000000" points="384.7535,-63.0675 374.5464,-65.9074 384.2967,-70.0526 384.7535,-63.0675"/>
</g>
<!-- \\App\\Form\\TaskType -->
<g id="node22" class="node">
<title>\\App\\Form\\TaskType</title>
<polygon fill="none" stroke="#000000" points="637.6667,-1004 566.6667,-1004 566.6667,-968 637.6667,-968 637.6667,-1004"/>
<text text-anchor="middle" x="602.1667" y="-983.2" font-family="Courier,monospace" font-size="11.00" fill="#000000">TaskType</text>
</g>
<!-- \\App\\Form\\TaskType&#45;&gt;AbstractType -->
<g id="edge25" class="edge">
<title>\\App\\Form\\TaskType&#45;&gt;AbstractType</title>
<path fill="none" stroke="#000000" d="M566.2315,-984.7791C546.9645,-982.0995 524.5907,-975.327 511.6667,-959 392.85,-808.8984 589.0292,-241.7449 461.4683,-99 442.3718,-77.6304 412.9992,-69.1479 384.8173,-66.6164"/>
<polygon fill="none" stroke="#000000" points="384.7174,-63.1024 374.5097,-65.9402 384.259,-70.0874 384.7174,-63.1024"/>
</g>
<!-- \\App\\Form\\UserDataType -->
<g id="node23" class="node">
<title>\\App\\Form\\UserDataType</title>
<polygon fill="none" stroke="#000000" points="651.1667,-950 553.1667,-950 553.1667,-914 651.1667,-914 651.1667,-950"/>
<text text-anchor="middle" x="602.1667" y="-929.2" font-family="Courier,monospace" font-size="11.00" fill="#000000">UserDataType</text>
</g>
<!-- \\App\\Form\\UserDataType&#45;&gt;AbstractType -->
<g id="edge26" class="edge">
<title>\\App\\Form\\UserDataType&#45;&gt;AbstractType</title>
<path fill="none" stroke="#000000" d="M552.7244,-928.216C537.2696,-924.4843 521.6641,-917.5793 511.6667,-905 400.0105,-764.5076 581.3081,-232.5801 461.4683,-99 442.4124,-77.7592 413.2017,-69.2652 385.1361,-66.6889"/>
<polygon fill="none" stroke="#000000" points="385.0821,-63.1774 374.8688,-65.9949 384.6099,-70.1614 385.0821,-63.1774"/>
</g>
<!-- \\App\\Repository\\CategoryRepository -->
<g id="node24" class="node">
<title>\\App\\Repository\\CategoryRepository</title>
<polygon fill="none" stroke="#000000" points="671.1667,-2244 533.1667,-2244 533.1667,-2208 671.1667,-2208 671.1667,-2244"/>
<text text-anchor="middle" x="602.1667" y="-2223.2" font-family="Courier,monospace" font-size="11.00" fill="#000000">CategoryRepository</text>
</g>
<!-- ServiceEntityRepository -->
<g id="node39" class="node">
<title>ServiceEntityRepository</title>
<ellipse fill="none" stroke="#000000" cx="304.6794" cy="-2636" rx="124.5782" ry="18"/>
<text text-anchor="middle" x="304.6794" y="-2632.3" font-family="Times,serif" font-size="14.00" fill="#c0c0c0">ServiceEntityRepository</text>
</g>
<!-- \\App\\Repository\\CategoryRepository&#45;&gt;ServiceEntityRepository -->
<g id="edge29" class="edge">
<title>\\App\\Repository\\CategoryRepository&#45;&gt;ServiceEntityRepository</title>
<path fill="none" stroke="#000000" d="M533.0317,-2240.2662C525.3562,-2243.6469 518.0277,-2247.8284 511.6667,-2253 391.4566,-2350.7333 331.0477,-2537.5029 311.7431,-2608.0695"/>
<polygon fill="none" stroke="#000000" points="308.2923,-2607.426 309.0925,-2617.9906 315.0551,-2609.2328 308.2923,-2607.426"/>
</g>
<!-- \\App\\Repository\\CommentRepository -->
<g id="node25" class="node">
<title>\\App\\Repository\\CommentRepository</title>
<polygon fill="none" stroke="#000000" points="667.6667,-2190 536.6667,-2190 536.6667,-2154 667.6667,-2154 667.6667,-2190"/>
<text text-anchor="middle" x="602.1667" y="-2169.2" font-family="Courier,monospace" font-size="11.00" fill="#000000">CommentRepository</text>
</g>
<!-- \\App\\Repository\\CommentRepository&#45;&gt;ServiceEntityRepository -->
<g id="edge30" class="edge">
<title>\\App\\Repository\\CommentRepository&#45;&gt;ServiceEntityRepository</title>
<path fill="none" stroke="#000000" d="M536.4495,-2184.3563C527.4757,-2188.0344 518.8835,-2192.8071 511.6667,-2199 379.0234,-2312.8242 325.2238,-2530.5628 309.7592,-2607.8954"/>
<polygon fill="none" stroke="#000000" points="306.2966,-2607.3665 307.8272,-2617.8501 313.1684,-2608.7001 306.2966,-2607.3665"/>
</g>
<!-- \\App\\Repository\\TagRepository -->
<g id="node26" class="node">
<title>\\App\\Repository\\TagRepository</title>
<polygon fill="none" stroke="#000000" points="654.1667,-2352 550.1667,-2352 550.1667,-2316 654.1667,-2316 654.1667,-2352"/>
<text text-anchor="middle" x="602.1667" y="-2331.2" font-family="Courier,monospace" font-size="11.00" fill="#000000">TagRepository</text>
</g>
<!-- \\App\\Repository\\TagRepository&#45;&gt;ServiceEntityRepository -->
<g id="edge31" class="edge">
<title>\\App\\Repository\\TagRepository&#45;&gt;ServiceEntityRepository</title>
<path fill="none" stroke="#000000" d="M568.6892,-2352.208C550.8622,-2362.6818 529.0849,-2376.7658 511.6667,-2392 432.1522,-2461.5447 356.5546,-2562.4076 322.9303,-2609.6862"/>
<polygon fill="none" stroke="#000000" points="320.0597,-2607.6838 317.1489,-2617.871 325.7771,-2611.7225 320.0597,-2607.6838"/>
</g>
<!-- \\App\\Repository\\UserDataRepository -->
<g id="node27" class="node">
<title>\\App\\Repository\\UserDataRepository</title>
<polygon fill="none" stroke="#000000" points="671.1667,-2298 533.1667,-2298 533.1667,-2262 671.1667,-2262 671.1667,-2298"/>
<text text-anchor="middle" x="602.1667" y="-2277.2" font-family="Courier,monospace" font-size="11.00" fill="#000000">UserDataRepository</text>
</g>
<!-- \\App\\Repository\\UserDataRepository&#45;&gt;ServiceEntityRepository -->
<g id="edge32" class="edge">
<title>\\App\\Repository\\UserDataRepository&#45;&gt;ServiceEntityRepository</title>
<path fill="none" stroke="#000000" d="M532.8934,-2294.8795C525.3288,-2298.1522 518.0645,-2302.1406 511.6667,-2307 403.7489,-2388.9681 337.7708,-2544.792 314.342,-2608.1581"/>
<polygon fill="none" stroke="#000000" points="310.9452,-2607.2584 310.8249,-2617.8526 317.5256,-2609.6458 310.9452,-2607.2584"/>
</g>
<!-- \\App\\Repository\\UserRepository -->
<g id="node28" class="node">
<title>\\App\\Repository\\UserRepository</title>
<polygon fill="none" stroke="#000000" points="657.6667,-2136 546.6667,-2136 546.6667,-2100 657.6667,-2100 657.6667,-2136"/>
<text text-anchor="middle" x="602.1667" y="-2115.2" font-family="Courier,monospace" font-size="11.00" fill="#000000">UserRepository</text>
</g>
<!-- \\App\\Repository\\UserRepository&#45;&gt;ServiceEntityRepository -->
<g id="edge33" class="edge">
<title>\\App\\Repository\\UserRepository&#45;&gt;ServiceEntityRepository</title>
<path fill="none" stroke="#000000" d="M546.5054,-2126.3221C533.9337,-2130.3239 521.4333,-2136.2441 511.6667,-2145 366.4945,-2275.1495 320.0627,-2523.7993 308.1859,-2607.6139"/>
<polygon fill="none" stroke="#000000" points="304.699,-2607.2806 306.8179,-2617.6614 311.6351,-2608.2251 304.699,-2607.2806"/>
</g>
<!-- PasswordUpgraderInterface -->
<g id="node46" class="node">
<title>PasswordUpgraderInterface</title>
<ellipse fill="none" stroke="#000000" cx="304.6794" cy="-326" rx="142.9746" ry="18"/>
<text text-anchor="middle" x="304.6794" y="-322.3" font-family="Times,serif" font-size="14.00" fill="#000000">PasswordUpgraderInterface</text>
</g>
<!-- \\App\\Repository\\UserRepository&#45;&gt;PasswordUpgraderInterface -->
<g id="edge34" class="edge">
<title>\\App\\Repository\\UserRepository&#45;&gt;PasswordUpgraderInterface</title>
<path fill="none" stroke="#000000" stroke-dasharray="1,5" d="M546.3995,-2110.1664C533.214,-2105.7129 520.4507,-2098.778 511.6667,-2088 497.2705,-2070.336 332.476,-578.3973 307.771,-354.0973"/>
<polygon fill="none" stroke="#000000" points="311.2447,-353.6659 306.6712,-344.1091 304.2868,-354.4321 311.2447,-353.6659"/>
</g>
<!-- \\App\\Security\\Voter\\NoteVoter -->
<g id="node29" class="node">
<title>\\App\\Security\\Voter\\NoteVoter</title>
<polygon fill="none" stroke="#000000" points="640.6667,-2494 563.6667,-2494 563.6667,-2458 640.6667,-2458 640.6667,-2494"/>
<text text-anchor="middle" x="602.1667" y="-2473.2" font-family="Courier,monospace" font-size="11.00" fill="#000000">NoteVoter</text>
</g>
<!-- Voter -->
<g id="node38" class="node">
<title>Voter</title>
<ellipse fill="none" stroke="#000000" cx="304.6794" cy="-2840" rx="35.9954" ry="18"/>
<text text-anchor="middle" x="304.6794" y="-2836.3" font-family="Times,serif" font-size="14.00" fill="#c0c0c0">Voter</text>
</g>
<!-- \\App\\Security\\Voter\\NoteVoter&#45;&gt;Voter -->
<g id="edge35" class="edge">
<title>\\App\\Security\\Voter\\NoteVoter&#45;&gt;Voter</title>
<path fill="none" stroke="#000000" d="M591.8189,-2494.0019C569.9523,-2531.4172 516.5145,-2619.621 461.4683,-2686 419.4818,-2736.6305 362.9439,-2788.906 330.492,-2817.6516"/>
<polygon fill="none" stroke="#000000" points="327.977,-2815.2026 322.784,-2824.4375 332.6025,-2820.4566 327.977,-2815.2026"/>
</g>
<!-- \\App\\Security\\Voter\\TaskVoter -->
<g id="node30" class="node">
<title>\\App\\Security\\Voter\\TaskVoter</title>
<polygon fill="none" stroke="#000000" points="640.6667,-2440 563.6667,-2440 563.6667,-2404 640.6667,-2404 640.6667,-2440"/>
<text text-anchor="middle" x="602.1667" y="-2419.2" font-family="Courier,monospace" font-size="11.00" fill="#000000">TaskVoter</text>
</g>
<!-- \\App\\Security\\Voter\\TaskVoter&#45;&gt;Voter -->
<g id="edge36" class="edge">
<title>\\App\\Security\\Voter\\TaskVoter&#45;&gt;Voter</title>
<path fill="none" stroke="#000000" d="M563.5149,-2424.5963C545.377,-2427.8118 524.8919,-2434.6546 511.6667,-2449 438.6858,-2528.1622 513.2342,-2591.5905 461.4683,-2686 429.9657,-2743.4537 370.1718,-2793.126 334.2206,-2819.6021"/>
<polygon fill="none" stroke="#000000" points="332.1048,-2816.8129 326.0606,-2825.5145 336.212,-2822.4813 332.1048,-2816.8129"/>
</g>
<!-- \\App\\Service\\CommentService -->
<g id="node31" class="node">
<title>\\App\\Service\\CommentService</title>
<polygon fill="none" stroke="#000000" points="657.6667,-762 546.6667,-762 546.6667,-726 657.6667,-726 657.6667,-762"/>
<text text-anchor="middle" x="602.1667" y="-741.2" font-family="Courier,monospace" font-size="11.00" fill="#000000">CommentService</text>
</g>
<!-- \\App\\Service\\NoteService -->
<g id="node32" class="node">
<title>\\App\\Service\\NoteService</title>
<polygon fill="none" stroke="#000000" points="647.6667,-708 556.6667,-708 556.6667,-672 647.6667,-672 647.6667,-708"/>
<text text-anchor="middle" x="602.1667" y="-687.2" font-family="Courier,monospace" font-size="11.00" fill="#000000">NoteService</text>
</g>
<!-- \\App\\Service\\TaskService -->
<g id="node33" class="node">
<title>\\App\\Service\\TaskService</title>
<polygon fill="none" stroke="#000000" points="647.6667,-654 556.6667,-654 556.6667,-618 647.6667,-618 647.6667,-654"/>
<text text-anchor="middle" x="602.1667" y="-633.2" font-family="Courier,monospace" font-size="11.00" fill="#000000">TaskService</text>
</g>
<!-- \\App\\Service\\UserDataService -->
<g id="node34" class="node">
<title>\\App\\Service\\UserDataService</title>
<polygon fill="none" stroke="#000000" points="661.1667,-600 543.1667,-600 543.1667,-564 661.1667,-564 661.1667,-600"/>
<text text-anchor="middle" x="602.1667" y="-579.2" font-family="Courier,monospace" font-size="11.00" fill="#000000">UserDataService</text>
</g>
<!-- \\App\\Service\\UserService -->
<g id="node35" class="node">
<title>\\App\\Service\\UserService</title>
<polygon fill="none" stroke="#000000" points="647.6667,-546 556.6667,-546 556.6667,-510 647.6667,-510 647.6667,-546"/>
<text text-anchor="middle" x="602.1667" y="-525.2" font-family="Courier,monospace" font-size="11.00" fill="#000000">UserService</text>
</g>
<!-- \\DoctrineMigrations\\Version20200727095736 -->
<g id="node36" class="node">
<title>\\DoctrineMigrations\\Version20200727095736</title>
<polygon fill="none" stroke="#000000" points="681.1667,-458 523.1667,-458 523.1667,-422 681.1667,-422 681.1667,-458"/>
<text text-anchor="middle" x="602.1667" y="-437.2" font-family="Courier,monospace" font-size="11.00" fill="#000000">Version20200727095736</text>
</g>
<!-- AbstractMigration -->
<g id="node45" class="node">
<title>AbstractMigration</title>
<ellipse fill="none" stroke="#000000" cx="304.6794" cy="-18" rx="96.6831" ry="18"/>
<text text-anchor="middle" x="304.6794" y="-14.3" font-family="Times,serif" font-size="14.00" fill="#000000">AbstractMigration</text>
</g>
<!-- \\DoctrineMigrations\\Version20200727095736&#45;&gt;AbstractMigration -->
<g id="edge27" class="edge">
<title>\\DoctrineMigrations\\Version20200727095736&#45;&gt;AbstractMigration</title>
<path fill="none" stroke="#000000" d="M522.9885,-423.0383C518.8055,-420.182 514.9729,-416.8605 511.6667,-413 404.2918,-287.6253 576.1324,-163.7447 461.4683,-45 447.9073,-30.9564 429.8829,-22.6093 410.8934,-17.8837"/>
<polygon fill="none" stroke="#000000" points="411.4063,-14.4141 400.8937,-15.7317 409.9335,-21.2574 411.4063,-14.4141"/>
</g>
<!-- \\DoctrineMigrations\\Version20200727174001 -->
<g id="node37" class="node">
<title>\\DoctrineMigrations\\Version20200727174001</title>
<polygon fill="none" stroke="#000000" points="681.1667,-404 523.1667,-404 523.1667,-368 681.1667,-368 681.1667,-404"/>
<text text-anchor="middle" x="602.1667" y="-383.2" font-family="Courier,monospace" font-size="11.00" fill="#000000">Version20200727174001</text>
</g>
<!-- \\DoctrineMigrations\\Version20200727174001&#45;&gt;AbstractMigration -->
<g id="edge28" class="edge">
<title>\\DoctrineMigrations\\Version20200727174001&#45;&gt;AbstractMigration</title>
<path fill="none" stroke="#000000" d="M600.647,-367.9902C594.7715,-310.5455 568.2151,-130.4432 461.4683,-45 447.0281,-33.4417 429.4142,-26.0827 411.2751,-21.5171"/>
<polygon fill="none" stroke="#000000" points="411.9828,-18.089 401.4595,-19.318 410.4523,-24.9197 411.9828,-18.089"/>
</g>
</g>
</svg>
